<?xml version="1.0" encoding="UTF-8"?>
<svg width="60px" height="60px" viewBox="0 0 60 60" version="1.1" xmlns="http://www.w3.org/2000/svg" xmlns:xlink="http://www.w3.org/1999/xlink">
    <!-- Generator: Sketch 53.2 (72643) - https://sketchapp.com -->
    <title>卖闲置</title>
    <desc>Created with Sketch.</desc>
    <g id="Page-1" stroke="none" stroke-width="1" fill="none" fill-rule="evenodd">
        <g id="2-发布" transform="translate(-158.000000, -483.000000)">
            <g id="Group-3" transform="translate(0.000000, 34.000000)">
                <g id="卖闲置" transform="translate(158.000000, 449.000000)">
                    <circle id="Oval-3-Copy" fill="#FF7F76" fill-rule="nonzero" cx="30" cy="30" r="30"></circle>
                    <g id="Group-17" transform="translate(17.000000, 18.000000)" stroke-width="2">
                        <path d="M8.3299574,7.26431329 L17.8087377,1.79210297 C18.2437784,1.54129333 18.8019439,1.68995504 19.0536656,2.1259078 L20.8777357,5.28519722 C21.1294573,5.72206202 20.9798836,6.27931543 20.5448429,6.53103711 L11.0660626,12.0032474 C10.6291978,12.2558811 10.0719443,12.1063074 9.82022267,11.6694426 L7.99615257,8.51015318 C7.74351886,8.07420042 7.89309261,7.51603497 8.3299574,7.26431329 Z" id="Stroke-3" stroke="#FFFFFF"></path>
                        <path d="M14.0202252,10.9475195 L5.68733419,6.13638154 C5.03027021,5.75698894 4.80483403,4.91641441 5.18422662,4.25935042 L7.2461429,0.687424125 C7.62553549,0.0296728328 8.46679733,-0.195076041 9.12386132,0.184316553 L17.4567523,4.99545453 C18.1145036,5.37553443 18.3399398,6.21542166 17.9598599,6.87317295 L15.8979436,10.4450992 C15.5192383,11.1021632 14.6779765,11.3275994 14.0202252,10.9475195 Z" id="Stroke-7" stroke="#FFFFFF" fill="#FF7F76"></path>
                        <path d="M25.5,9.1167 L1.5,9.1167 C0.947,9.1167 0.5,8.6697 0.5,8.1167 L0.5,6.1167 C0.5,5.5637 0.947,5.1167 1.5,5.1167 L25.5,5.1167 C26.053,5.1167 26.5,5.5637 26.5,6.1167 L26.5,8.1167 C26.5,8.6697 26.053,9.1167 25.5,9.1167 Z" id="Stroke-11" stroke="#FCFCFC" fill="#FF7F76"></path>
                        <path d="M19.8636364,23.1167 L7.13636364,23.1167 C5.12818182,23.1167 3.5,21.3257 3.5,19.1167 L3.5,9.1167 L23.5,9.1167 L23.5,19.1167 C23.5,21.3257 21.8718182,23.1167 19.8636364,23.1167 Z" id="Stroke-15" stroke="#FCFCFC" fill="#FF7F76"></path>
                    </g>
                </g>
            </g>
        </g>
    </g>
</svg>