<?xml version="1.0" encoding="UTF-8"?>
<svg width="60px" height="60px" viewBox="0 0 60 60" version="1.1" xmlns="http://www.w3.org/2000/svg" xmlns:xlink="http://www.w3.org/1999/xlink">
    <!-- Generator: Sketch 53.2 (72643) - https://sketchapp.com -->
    <title>发布求购</title>
    <desc>Created with Sketch.</desc>
    <g id="Page-1" stroke="none" stroke-width="1" fill="none" fill-rule="evenodd">
        <g id="2-发布" transform="translate(-70.000000, -543.000000)">
            <g id="Group-3" transform="translate(0.000000, 34.000000)">
                <g id="发布求购" transform="translate(70.000000, 509.000000)">
                    <circle id="Oval-3" fill="#FEA958" fill-rule="nonzero" cx="30" cy="30" r="30"></circle>
                    <g id="Group-23" transform="translate(19.000000, 17.000000)">
                        <path d="M12.7383,28.2735 C11.5213,29.0445 9.9783,29.0445 8.7613,28.2735 C6.1113,26.5925 1.7503,23.6535 1.7503,22.5005 L1.7503,4.5005 C1.7503,2.8425 3.0923,1.5005 4.7503,1.5005 L16.7503,1.5005 C18.4073,1.5005 19.7503,2.8425 19.7503,4.5005 L19.7503,22.5005 C19.7503,23.6535 15.3883,26.5925 12.7383,28.2735 Z" id="Stroke-3" stroke="#FFFFFF" stroke-width="2" fill="#FEA958"></path>
                        <path d="M3.5,3.5 C3.5,5.08615097 2.79356369,6.5 1.5,6.5 C0.206436307,6.5 -0.5,5.08615097 -0.5,3.5 C-0.5,1.91384903 0.206436307,0.5 1.5,0.5 C2.79356369,0.5 3.5,1.91384903 3.5,3.5 Z" id="Stroke-7" stroke="#FFFFFF" stroke-width="2" fill="#FEA958"></path>
                        <g id="Group-12" transform="translate(1.000000, 0.351600)" fill="#FEA958" stroke="#FFFFFF" stroke-width="2">
                            <polyline id="Stroke-11" points="0.5 0.1484 18.5 0.1484 18.5 6.1484 0.5 6.1484"></polyline>
                        </g>
                        <path d="M21.75,3.5 C21.75,5.08615097 21.0435637,6.5 19.75,6.5 C18.4564363,6.5 17.75,5.08615097 17.75,3.5 C17.75,1.91384903 18.4564363,0.5 19.75,0.5 C21.0435637,0.5 21.75,1.91384903 21.75,3.5 Z" id="Stroke-15" stroke="#FFFFFF" stroke-width="2" fill="#FEA958"></path>
                        <path d="M15.75,11.5 L5.75,11.5 C5.197,11.5 4.75,11.053 4.75,10.5 C4.75,9.947 5.197,9.5 5.75,9.5 L15.75,9.5 C16.303,9.5 16.75,9.947 16.75,10.5 C16.75,11.053 16.303,11.5 15.75,11.5" id="Fill-17" fill="#FFFFFF"></path>
                        <path d="M15.75,21.5 L5.75,21.5 C5.197,21.5 4.75,21.053 4.75,20.5 C4.75,19.947 5.197,19.5 5.75,19.5 L15.75,19.5 C16.303,19.5 16.75,19.947 16.75,20.5 C16.75,21.053 16.303,21.5 15.75,21.5" id="Fill-19" fill="#FFFFFF"></path>
                        <path d="M15.75,16.5 L5.75,16.5 C5.197,16.5 4.75,16.053 4.75,15.5 C4.75,14.947 5.197,14.5 5.75,14.5 L15.75,14.5 C16.303,14.5 16.75,14.947 16.75,15.5 C16.75,16.053 16.303,16.5 15.75,16.5" id="Fill-21" fill="#FFFFFF"></path>
                    </g>
                </g>
            </g>
        </g>
    </g>
</svg>