<?xml version="1.0" encoding="UTF-8"?>
<svg width="60px" height="60px" viewBox="0 0 60 60" version="1.1" xmlns="http://www.w3.org/2000/svg" xmlns:xlink="http://www.w3.org/1999/xlink">
    <!-- Generator: Sketch 53.2 (72643) - https://sketchapp.com -->
    <title>出租</title>
    <desc>Created with Sketch.</desc>
    <g id="Page-1" stroke="none" stroke-width="1" fill="none" fill-rule="evenodd">
        <g id="2-发布" transform="translate(-245.000000, -543.000000)">
            <g id="Group-3" transform="translate(0.000000, 34.000000)">
                <g id="出租" transform="translate(245.000000, 509.000000)">
                    <circle id="Oval-3-Copy-2" fill="#FF0099" fill-rule="nonzero" cx="30" cy="30" r="30"></circle>
                    <g id="Group-19" transform="translate(15.000000, 21.000000)">
                        <path d="M29.3907,4.4014 L16.9987,16.7944 C15.8577,17.9344 14.0067,17.9344 12.8657,16.7944 L6.2677,10.1964" id="Stroke-3" stroke="#FFFFFF" stroke-width="2" stroke-linecap="round"></path>
                        <path d="M0.5,10.6895 L4.518,6.6715 C5.659,5.5305 7.51,5.5305 8.651,6.6715 L13.834,11.8555" id="Stroke-5" stroke="#FFFFFF" stroke-width="2" stroke-linecap="round"></path>
                        <g id="Group-10" transform="translate(17.000000, 3.149600)">
                            <path d="M0.2364,6.3358 L5.8924,0.6788" id="Fill-7" fill="#FEFEFE"></path>
                            <path d="M0.2364,6.3358 L5.8924,0.6788" id="Stroke-9" stroke="#FFFFFF" stroke-width="2" stroke-linecap="round"></path>
                        </g>
                        <g id="Group-14" transform="translate(14.000000, 2.149600)">
                            <path d="M0.4073,4.5076 L4.6503,0.2646" id="Fill-11" fill="#FEFEFE"></path>
                            <path d="M0.4073,4.5076 L4.6503,0.2646" id="Stroke-13" stroke="#FFFFFF" stroke-width="2" stroke-linecap="round"></path>
                        </g>
                        <g id="Group-18" transform="translate(11.000000, 0.149600)">
                            <path d="M0.5791,3.6785 L3.4071,0.8505" id="Fill-15" fill="#FEFEFE"></path>
                            <path d="M0.5791,3.6785 L3.4071,0.8505" id="Stroke-17" stroke="#FFFFFF" stroke-width="2" stroke-linecap="round"></path>
                        </g>
                    </g>
                </g>
            </g>
        </g>
    </g>
</svg>